<?xml version="1.0" encoding="UTF-8" standalone="no"?>
<!-- Created with Inkscape (http://www.inkscape.org/) -->

<svg
   width="1000.0001"
   height="999.99994"
   viewBox="0 0 264.58334 264.58332"
   version="1.1"
   id="svg5"
   inkscape:version="1.1 (c68e22c387, 2021-05-23)"
   inkscape:export-filename="D:\Downloads\favicon.png"
   inkscape:export-xdpi="96"
   inkscape:export-ydpi="96"
   sodipodi:docname="favicon.svg"
   xmlns:inkscape="http://www.inkscape.org/namespaces/inkscape"
   xmlns:sodipodi="http://sodipodi.sourceforge.net/DTD/sodipodi-0.dtd"
   xmlns="http://www.w3.org/2000/svg"
   xmlns:svg="http://www.w3.org/2000/svg">
  <sodipodi:namedview
     id="namedview7"
     pagecolor="#1a1a1a"
     bordercolor="#ff0066"
     borderopacity="1"
     inkscape:pageshadow="0"
     inkscape:pageopacity="0"
     inkscape:pagecheckerboard="true"
     inkscape:document-units="px"
     showgrid="false"
     units="px"
     inkscape:showpageshadow="false"
     inkscape:snap-intersection-paths="true"
     inkscape:zoom="0.35355339"
     inkscape:cx="-125.86501"
     inkscape:cy="496.38896"
     inkscape:window-width="1920"
     inkscape:window-height="1017"
     inkscape:window-x="1912"
     inkscape:window-y="-8"
     inkscape:window-maximized="1"
     inkscape:current-layer="layer1" />
  <defs
     id="defs2" />
  <g
     inkscape:label="Layer 1"
     inkscape:groupmode="layer"
     id="layer1"
     transform="translate(-837.04669,21.504532)">
    <g
       id="g30106"
       transform="matrix(0.70765368,0,0,0.70765368,508.59995,31.631766)"
       style="stroke-width:1.41312">
      <circle
         style="fill:#ffd23b;fill-opacity:1;stroke-width:46.7359;stroke-linecap:round;stroke-linejoin:round;stroke-opacity:0.0967742;paint-order:stroke fill markers"
         id="circle822"
         cx="582.41431"
         cy="171.32137"
         r="92.604164" />
      <circle
         style="fill:#09a1e5;fill-opacity:1;stroke-width:46.7359;stroke-linecap:round;stroke-linejoin:round;stroke-opacity:0.0967742;paint-order:stroke fill markers"
         id="circle824"
         cx="651.07892"
         cy="52.390759"
         r="92.604164" />
      <circle
         style="fill:#ff5178;fill-opacity:1;stroke-width:46.7359;stroke-linecap:round;stroke-linejoin:round;stroke-opacity:0.0967742;paint-order:stroke fill markers"
         id="circle826"
         cx="719.74359"
         cy="171.32138"
         r="92.604164" />
      <path
         id="circle21602"
         style="fill:#89c247;fill-opacity:1;stroke-width:176.64;stroke-linecap:round;stroke-linejoin:round;stroke-opacity:0.0967742;paint-order:stroke fill markers"
         d="m 2201.25,297.51367 a 349.99999,349.99999 0 0 0 -73.4355,7.9336 349.99999,349.99999 0 0 0 332.957,242.56445 349.99999,349.99999 0 0 0 73.5625,-7.95703 349.99999,349.99999 0 0 0 -333.084,-242.54102 z"
         transform="scale(0.26458333)" />
      <path
         id="circle21607"
         style="fill:#962b7c;fill-opacity:1;stroke-width:176.64;stroke-linecap:round;stroke-linejoin:round;stroke-opacity:0.0967742;paint-order:stroke fill markers"
         d="m 2720.291,297.51367 a 349.99999,349.99999 0 0 0 -332.957,242.56445 349.99999,349.99999 0 0 0 73.4375,7.9336 349.99999,349.99999 0 0 0 332.9941,-242.67969 349.99999,349.99999 0 0 0 -73.4746,-7.81836 z"
         transform="scale(0.26458333)" />
      <path
         id="circle21612"
         style="fill:#ff9259;fill-opacity:1;stroke-width:176.64;stroke-linecap:round;stroke-linejoin:round;stroke-opacity:0.0967742;paint-order:stroke fill markers"
         d="m 2460.8438,412.79883 a 349.99999,349.99999 0 0 0 -90.5528,234.71484 349.99999,349.99999 0 0 0 90.4805,234.63086 349.99999,349.99999 0 0 0 90.4785,-234.63086 349.99999,349.99999 0 0 0 -90.4062,-234.71484 z"
         transform="scale(0.26458333)" />
      <path
         id="circle21617"
         style="fill:#2d3e53;fill-opacity:1;stroke-width:176.64;stroke-linecap:round;stroke-linejoin:round;stroke-opacity:0.0967742;paint-order:stroke fill markers"
         d="m 2460.8438,412.79883 a 349.99999,349.99999 0 0 0 -73.5098,127.27929 349.99999,349.99999 0 0 0 73.4375,7.9336 349.99999,349.99999 0 0 0 73.5625,-7.95703 349.99999,349.99999 0 0 0 -73.4902,-127.25586 z"
         transform="scale(0.26458333)" />
    </g>
  </g>
</svg>
